<svg version="1.1" viewBox="0.0 0.0 960.0 540.0" fill="none" stroke="none" stroke-linecap="square" stroke-miterlimit="10" xmlns:xlink="http://www.w3.org/1999/xlink" xmlns="http://www.w3.org/2000/svg"><clipPath id="g2b7f60459a4_0_5.0"><path d="m0 0l960.0 0l0 540.0l-960.0 0l0 -540.0z" clip-rule="nonzero"/></clipPath><g clip-path="url(#g2b7f60459a4_0_5.0)"><path fill="#000000" fill-opacity="0.0" d="m0 0l960.0 0l0 540.0l-960.0 0z" fill-rule="evenodd"/><path fill="#fff166" d="m274.6349 132.91278c0 0 0 0 0 0l0 0l0 0zm96.33865 -1.9554596c-1.961792 0 -3.785675 0.3164673 -5.471588 0.9494324c-1.6859131 0.6329651 -3.1879272 1.5129242 -4.506012 2.6398926c-1.3180847 1.1269836 -2.3602905 2.4777985 -3.126648 4.052475c-0.7663269 1.5592499 -1.1494751 3.2188263 -1.1494751 4.97876c0 1.8062439 0.3831482 3.4889984 1.1494751 5.048233c0.78167725 1.5592346 1.831543 2.8869019 3.1496277 3.9830017c1.3180847 1.080658 2.812439 1.9374695 4.483032 2.5704346c1.6859131 0.6329498 3.5097961 0.9494324 5.471588 0.9494324c1.9158325 0 3.7090454 -0.31648254 5.3796387 -0.9494324c1.6859131 -0.6329651 3.1802673 -1.4974823 4.483032 -2.5935974c1.3027649 -1.0960846 2.3373108 -2.4160461 3.1036377 -3.9598389c0.7663269 -1.5592346 1.1494751 -3.2419891 1.1494751 -5.048233c0 -1.7599335 -0.3831482 -3.41951 -1.1494751 -4.97876c-0.7663269 -1.5746765 -1.8008728 -2.9254913 -3.1036377 -4.052475c-1.2874451 -1.1269684 -2.774109 -2.0069275 -4.4600525 -2.6398926c-1.6859131 -0.6329651 -3.486786 -0.9494324 -5.4026184 -0.9494324zm52.090363 31.828934c0 0 0 0 0 0l0 0c0 0 0 0 0 0zm76.694275 0c0 0 0 0 0 0l0 0c0 0 0 0 0 0zm-191.30838 3.660904l0 0l0 0c0 0 0 0 0 0zm122.389404 4.7570343c1.1495056 0 2.1917114 0.31648254 3.1266174 0.9494324c0.9349365 0.6329651 1.8162231 1.8216858 2.6438599 3.5661774c0.8276367 1.729065 1.4866638 4.1991425 1.9771118 7.410248c0.50579834 3.1956635 0.758667 7.194107 0.758667 11.995331c0 3.9058075 -0.19924927 7.549179 -0.5977173 10.9300995c-0.3831787 3.3809204 -0.9885864 6.2601166 -1.8162231 8.637573c-0.8122864 2.3620148 -1.7165527 4.0833435 -2.712799 5.1640015c-0.9962158 1.080658 -2.0767517 1.6210022 -3.2415771 1.6210022c-0.95025635 0 -1.7702026 -0.23930359 -2.4599 -0.71788025c-0.68969727 -0.49401855 -1.2874451 -1.1038208 -1.7932129 -1.8293915c-0.50579834 -0.7256012 -0.8736267 -1.4048767 -1.1035156 -2.0378265c-0.21456909 -0.6329498 -0.3218689 -0.96487427 -0.3218689 -0.9957428l0 -38.69536c0 -0.52490234 0.16860962 -1.1501312 0.5057678 -1.8757172c0.35250854 -0.72558594 0.8276367 -1.4048615 1.4253845 -2.0378265c0.5977478 -0.6329498 1.2261353 -1.1346893 1.8851624 -1.5052032c0.6590576 -0.38594055 1.2337952 -0.57891846 1.7242432 -0.57891846zm76.694275 0c1.1495056 0 2.1917114 0.31648254 3.1266174 0.9494324c0.9349365 0.6329651 1.8162231 1.8216858 2.6438599 3.5661774c0.8276367 1.729065 1.4866943 4.1991425 1.9771118 7.410248c0.50579834 3.1956635 0.758667 7.194107 0.758667 11.995331c0 3.9058075 -0.19921875 7.549179 -0.5977173 10.9300995c-0.3831787 3.3809204 -0.9885864 6.2601166 -1.8162231 8.637573c-0.8123169 2.3620148 -1.7165833 4.0833435 -2.712799 5.1640015c-0.9962158 1.080658 -2.0767517 1.6210022 -3.2415771 1.6210022c-0.95025635 0 -1.7702332 -0.23930359 -2.4599304 -0.71788025c-0.68969727 -0.49401855 -1.2874146 -1.1038208 -1.7932129 -1.8293915c-0.5057678 -0.7256012 -0.8735962 -1.4048767 -1.1035156 -2.0378265c-0.21456909 -0.6329498 -0.32183838 -0.96487427 -0.32183838 -0.9957428l0 -38.69536c0 -0.52490234 0.1685791 -1.1501312 0.5057678 -1.8757172c0.35250854 -0.72558594 0.8276367 -1.4048615 1.4253845 -2.0378265c0.5977173 -0.6329498 1.2261047 -1.1346893 1.8851624 -1.5052032c0.6590576 -0.38594055 1.2337952 -0.57891846 1.7242432 -0.57891846zm-136.83582 -14.751007c-2.1610413 0 -4.214813 0.23156738 -6.1612854 0.69470215c-1.9311523 0.46313477 -3.7320251 1.0575104 -5.4026184 1.7830963c-1.6706238 0.71014404 -3.2262573 1.5360718 -4.6669617 2.4777985c-1.425354 0.92626953 -3.471466 2.500946 -6.1383057 4.7240295l5.1957397 6.20607c1.9771118 -1.5592346 3.0882874 -2.4006042 3.3335266 -2.524109c0.26052856 -0.13894653 0.5517578 -0.2084198 0.8735962 -0.2084198c0.3831787 0 0.6667175 0.14666748 0.850647 0.43998718c0.18389893 0.2933197 0.2758789 0.825943 0.2758789 1.5978394l0 53.631622c0 0.69470215 0.1149292 1.6441498 0.34484863 2.8483124c0.22988892 1.1887207 0.85061646 2.3620148 1.8621826 3.519867c1.026886 1.1578522 2.4216003 2.1072845 4.184143 2.8483124c1.7625732 0.7410126 4.061554 1.1115265 6.8969727 1.1115265c2.7894287 0 5.0807495 -0.33963013 6.8739624 -1.0189056c1.7932129 -0.6638336 3.2415771 -1.5515137 4.345093 -2.6630554c1.1035156 -1.1115417 1.8008728 -2.2848206 2.092102 -3.519867c0.30651855 -1.250473 0.45977783 -2.2925415 0.45977783 -3.1261902l0 -54.32634c0 -1.1424103 -0.099609375 -2.5318298 -0.29885864 -4.1682587c-0.19924927 -1.6364288 -0.8276367 -3.24971 -1.8851624 -4.839813c-1.0575562 -1.605545 -2.6362 -2.9177856 -4.7359314 -3.9366913c-2.0997314 -1.0343475 -4.8661804 -1.5515137 -8.299347 -1.5515137zm-76.00458 -35.985992c-2.1610413 0 -4.214813 0.23156738 -6.1612854 0.6947098c-1.9311523 0.46313477 -3.747345 1.0575027 -5.4486084 1.7830887c-1.6859131 0.71014404 -3.2339172 1.5360794 -4.6439514 2.4777985c-1.4100342 0.92627716 -3.4484863 2.4932404 -6.1152954 4.7008667l2.3109436 2.7891235c-1.1655579 -1.220993 -2.5106506 -2.2973633 -4.035187 -3.2290955c-2.7281494 -1.6673126 -5.8700867 -2.9100647 -9.425873 -3.7282867c-3.5404358 -0.8336487 -7.42572 -1.250473 -11.655869 -1.250473c-6.467819 0 -12.57547 1.3816986 -18.322937 4.145096c-5.732132 2.7634125 -10.705612 6.846756 -14.920441 12.250061c-4.1994934 5.403305 -7.5023804 12.041641 -9.908646 19.915024c-2.3909454 7.8579407 -3.5864105 16.935486 -3.5864105 27.232635c0 10.930115 1.1341553 20.378174 3.4024963 28.344177c2.283661 7.9660187 5.479248 14.558044 9.586777 19.776093c4.107544 5.2334747 8.95076 9.100693 14.529617 11.601654c5.5941925 2.5009613 11.609894 3.7514343 18.047058 3.7514343c4.1381836 0 7.9161835 -0.50172424 11.33403 -1.5052032c3.4178162 -0.98802185 6.498474 -2.269394 9.241913 -3.8440704c2.758789 -1.5746765 5.1650696 -3.319168 7.2188416 -5.2334747c2.0690918 -1.89888 4.3987427 -4.4538727 6.988922 -7.664978l-7.2188416 -7.271286c-2.620819 3.0721588 -4.674591 5.1794434 -6.1612854 6.3218536c-1.471344 1.1269684 -3.0039978 2.084137 -4.5979614 2.8714752c-1.5786438 0.78733826 -3.1802673 1.3816986 -4.804901 1.783081c-1.6246033 0.41682434 -3.210907 0.62524414 -4.758896 0.62524414c-1.4560394 0 -3.0040283 -0.21614075 -4.6439667 -0.6483917c-1.6246033 -0.43226624 -3.264557 -1.2350311 -4.9198303 -2.4083405c-1.6552734 -1.1578369 -3.264557 -2.8405762 -4.827881 -5.048218c-1.5633087 -2.2076416 -2.988678 -5.133148 -4.276108 -8.7765045c-1.27211 -3.6433716 -2.298996 -8.135834 -3.080658 -13.477386c-0.7816467 -5.3415375 -1.1724701 -11.69429 -1.1724701 -19.058212c0 -7.734436 0.39082336 -14.419098 1.1724701 -20.05397c0.781662 -5.634857 1.7932129 -10.374329 3.034668 -14.218399c1.2414551 -3.8440552 2.6131897 -6.9162292 4.1151886 -9.216492c1.5020142 -2.315689 2.9810333 -4.0679016 4.4370575 -5.2566376c1.4560242 -1.2041626 2.8507385 -2.0069427 4.1841583 -2.4083252c1.3334045 -0.41682434 2.475235 -0.62524414 3.4254913 -0.62524414c1.0422058 0 1.785553 0.16210938 2.2300262 0.4862976c0.44447327 0.3087616 0.8199768 0.80278015 1.1264954 1.4820557c0.30654907 0.6792755 0.5287781 1.605545 0.6667175 2.778839c0.13793945 1.1732788 0.22988892 2.4700775 0.2758789 3.8903809c0.045959473 1.4048615 0.13024902 2.87146 0.25286865 4.399826c0.13793945 1.5283661 0.46746826 3.0181274 0.9885864 4.4692993c0.536438 1.4511719 1.4483643 2.6939392 2.7357788 3.7282867c1.2874451 1.0343475 3.0116882 1.5515137 5.1727295 1.5515137c2.176361 0 4.0845337 -0.4708557 5.7244873 -1.4125824c1.6399536 -0.9571533 2.996338 -2.153595 4.069214 -3.589325c1.0881958 -1.4357452 1.8851624 -2.987259 2.3909302 -4.6545715c0.50579834 -1.6827393 0.758667 -3.2960052 0.758667 -4.839813c0 -3.2882843 -0.78930664 -6.229233 -2.3679504 -8.822815c-0.24285889 -0.39898682 -0.4992981 -0.7870178 -0.76934814 -1.164093l0 0l1.1371765 1.3725128c1.9464722 -1.5283661 3.0576782 -2.3542938 3.3335571 -2.4777985c0.2758789 -0.12350464 0.5977173 -0.18525696 0.9655762 -0.18525696c0.3831482 0 0.666687 0.14665222 0.85061646 0.43997192c0.18392944 0.2933197 0.2758789 0.825943 0.2758789 1.5978394l0 89.617615c0 0.72558594 0.13027954 1.6904602 0.39083862 2.8946228c0.26052856 1.188736 0.91192627 2.3620148 1.9541321 3.519867c1.0422058 1.1424103 2.4675903 2.076416 4.276123 2.802002c1.8085327 0.7410126 4.1228333 1.1115265 6.942932 1.1115265c2.7894592 0 5.07312 -0.33963013 6.8509827 -1.0189056c1.7932129 -0.6792755 3.2185974 -1.5823975 4.276123 -2.7093658c1.0575562 -1.1269684 1.7165833 -2.3002625 1.9771423 -3.519867c0.26055908 -1.2350464 0.3908081 -2.261673 0.3908081 -3.0798798l-0.45977783 -45.526672l0 0c0.021392822 0.003921509 0.043182373 0.005874634 0.065338135 0.005874634c0.3267212 0 0.7340698 -0.4264984 1.2220764 -1.2795105c0.536438 -0.9262848 1.111206 -1.7676544 1.7242432 -2.5241241c0.62841797 -0.75645447 1.2644653 -1.3662567 1.9081726 -1.8293915c0.6590271 -0.46315002 1.3410645 -0.6947174 2.046112 -0.6947174c0.6130371 0 1.203125 0.15438843 1.7702026 0.46315002c0.582428 0.30874634 1.1954956 1.1655579 1.8392029 2.5704193c0.6590271 1.4048615 1.2337952 3.7514343 1.7242432 7.039734c0.5057678 3.2728577 0.758667 7.749878 0.758667 13.431061c0 8.367401 -0.28353882 15.160126 -0.850647 20.378159c-0.5517578 5.202606 -1.3180847 9.208771 -2.2989807 12.018494c-0.9655762 2.809723 -2.0690918 4.7471924 -3.3105469 5.8124084c-1.2261353 1.0652161 -3.6017456 2.0300903 -7.1268616 2.8946228l1.9541321 8.05864c3.4178467 -0.09262085 6.3758545 -0.4091034 8.874115 -0.9494324c2.5135498 -0.5248871 5.1267395 -1.4743347 7.8395386 -2.8483124c2.7281494 -1.358551 5.4179688 -3.2419891 8.069458 -5.6503143c2.6514893 -2.3928986 5.0118103 -5.4573364 7.080902 -9.193329c2.0844116 -3.7360077 3.755005 -8.205307 5.01178 -13.407913c1.2567749 -5.202591 1.8851624 -11.277451 1.8851624 -18.224564c0 -7.0860443 -0.45977783 -13.08371 -1.3793945 -17.992981c-0.9195862 -4.9247284 -2.3296204 -9.000366 -4.230133 -12.226913c-1.8851624 -3.226532 -4.283783 -5.557678 -7.1958313 -6.993408c-2.8967285 -1.43573 -6.1152954 -2.153595 -9.655762 -2.153595c-1.6859131 0 -3.3182068 0.21612549 -4.8968506 0.6483917c-1.5786133 0.43226624 -3.0576477 1.0034637 -4.437042 1.713623c-1.3793945 0.69470215 -2.666809 1.4820404 -3.8623047 2.3620148c-1.1954651 0.8645172 -2.2683105 1.7521973 -3.218567 2.6630554c-1.1411133 1.0267944 -1.9122009 1.8957672 -2.3132324 2.6068878l0 0l1.4625854 -31.553146c0 -1.1424255 -0.099609375 -2.5164032 -0.29885864 -4.1219482c-0.19924927 -1.6210022 -0.8276367 -3.2265472 -1.8851624 -4.8166656c-1.0575256 -1.6055527 -2.6361694 -2.917778 -4.7359314 -3.9366913c-2.0997314 -1.0343399 -4.8661804 -1.5515137 -8.299347 -1.5515137zm115.38626 35.985992c-2.1610413 0 -4.214813 0.23156738 -6.1612854 0.69470215c-1.9311523 0.46313477 -3.7320251 1.0575104 -5.4026184 1.7830963c-1.6706238 0.71014404 -3.2262573 1.5360718 -4.6669617 2.4777985c-1.4253845 0.92626953 -3.471466 2.500946 -6.1383057 4.7240295l5.195709 6.20607c1.9771423 -1.5592346 3.0883179 -2.4006042 3.3335571 -2.524109c0.26052856 -0.13894653 0.5517578 -0.2084198 0.8735962 -0.2084198c0.3831787 0 0.6667175 0.14666748 0.850647 0.43998718c0.18389893 0.2933197 0.2758789 0.825943 0.2758789 1.5978394l0 88.08925c0 0.72558594 0.13024902 1.6750183 0.3908081 2.848297c0.2758789 1.1733093 0.94259644 2.3465881 2.000122 3.519867c1.0575256 1.1732788 2.4752502 2.1227417 4.2531433 2.8483276c1.7932129 0.74102783 4.0998535 1.1115417 6.9199524 1.1115417c2.8047485 0 5.0961 -0.35510254 6.8739624 -1.0652466c1.7932129 -0.69470215 3.2109375 -1.6055298 4.2531433 -2.7325134c1.0422058 -1.1269836 1.693573 -2.2925415 1.9541321 -3.496704c0.2758789 -1.2041626 0.41381836 -2.2153625 0.41381836 -3.0335693l-2.1820374 -29.340088l0 0c0.95373535 0.74269104 2.1255798 1.4914856 3.515442 2.2463837c1.5786438 0.8336487 3.4331665 1.536087 5.563568 2.1072845c2.1457214 0.57121277 4.613312 0.8568115 7.4027405 0.8568115c3.4638062 0 6.8663025 -0.7796173 10.20752 -2.338852c3.3411865 -1.5592499 6.276245 -4.0138855 8.805115 -7.363922c2.5289001 -3.3500519 4.536682 -7.5491943 6.023346 -12.597412c1.5020142 -5.063675 2.2530212 -11.123077 2.2530212 -18.178253c0 -6.0825806 -0.6130676 -11.493607 -1.8392029 -16.233063c-1.2261353 -4.754898 -3.034668 -8.807373 -5.425598 -12.157425c-2.3756409 -3.3654938 -5.2723694 -5.920471 -8.690186 -7.664978c-3.4024963 -1.7444916 -7.1805115 -2.6167297 -11.334015 -2.6167297c-2.0384216 0 -4.007904 0.23927307 -5.9084167 0.717865c-1.9004822 0.46313477 -3.701355 1.1269684 -5.4026184 1.9915009c-1.6859131 0.8645172 -3.256897 1.9065857 -4.712921 3.1261902c-0.18869019 0.15974426 -0.3588562 0.32557678 -0.51049805 0.49751282l0 0c-0.5501404 -0.78134155 -1.215271 -1.5261078 -1.9953918 -2.2342834c-1.2414551 -1.1424103 -2.766449 -2.1072845 -4.5749817 -2.8946228c-1.7932129 -0.80278015 -3.9312744 -1.2041626 -6.4141846 -1.2041626zm76.694275 0c-2.1610718 0 -4.214813 0.23156738 -6.161316 0.69470215c-1.9311218 0.46313477 -3.7320251 1.0575104 -5.4026184 1.7830963c-1.6705933 0.71014404 -3.2262268 1.5360718 -4.666931 2.4777985c-1.4253845 0.92626953 -3.471466 2.500946 -6.1383057 4.7240295l5.195709 6.20607c1.9771423 -1.5592346 3.0883179 -2.4006042 3.3335266 -2.524109c0.26055908 -0.13894653 0.5517578 -0.2084198 0.8736267 -0.2084198c0.3831482 0 0.6667175 0.14666748 0.85061646 0.43998718c0.18392944 0.2933197 0.2758789 0.825943 0.2758789 1.5978394l0 88.08925c0 0.72558594 0.13027954 1.6750183 0.39083862 2.848297c0.2758789 1.1733093 0.94259644 2.3465881 2.000122 3.519867c1.0575256 1.1732788 2.4752502 2.1227417 4.253113 2.8483276c1.7932129 0.74102783 4.099884 1.1115417 6.919983 1.1115417c2.8047485 0 5.0960693 -0.35510254 6.8739624 -1.0652466c1.7932129 -0.69470215 3.2109375 -1.6055298 4.2531433 -2.7325134c1.0422058 -1.1269836 1.693573 -2.2925415 1.9541321 -3.496704c0.2758789 -1.2041626 0.41381836 -2.2153625 0.41381836 -3.0335693l-2.1820679 -29.340088l0 0c0.95376587 0.74269104 2.1255798 1.4914856 3.5154724 2.2463837c1.5786438 0.8336487 3.4331665 1.536087 5.563568 2.1072845c2.1457214 0.57121277 4.6132812 0.8568115 7.40271 0.8568115c3.4638062 0 6.866333 -0.7796173 10.20752 -2.338852c3.3411865 -1.5592499 6.276245 -4.0138855 8.805115 -7.363922c2.5289307 -3.3500519 4.536682 -7.5491943 6.0233765 -12.597412c1.5020142 -5.063675 2.2529907 -11.123077 2.2529907 -18.178253c0 -6.0825806 -0.6130371 -11.493607 -1.8391724 -16.233063c-1.2261353 -4.754898 -3.034668 -8.807373 -5.425598 -12.157425c-2.3756714 -3.3654938 -5.272339 -5.920471 -8.690186 -7.664978c-3.4025269 -1.7444916 -7.180542 -2.6167297 -11.334045 -2.6167297c-2.038391 0 -4.0078735 0.23927307 -5.908386 0.717865c-1.9004822 0.46313477 -3.701355 1.1269684 -5.4026184 1.9915009c-1.6859131 0.8645172 -3.256897 1.9065857 -4.712921 3.1261902c-0.1887207 0.15974426 -0.35888672 0.32557678 -0.51049805 0.49751282c-0.5501404 -0.78134155 -1.215271 -1.5261078 -1.9953918 -2.2342834c-1.2414551 -1.1424103 -2.766449 -2.1072845 -4.575012 -2.8946228c-1.7932129 -0.80278015 -3.931244 -1.2041626 -6.414154 -1.2041626z" fill-rule="evenodd"/><path fill="#fff166" d="m643.1605 166.60938c0 0 0 0 0 0l0 0c0 0 0 0 0 0zm-61.8985 2.8580475c0.536438 0 1.0499268 0.22384644 1.5403442 0.6715393c0.50579834 0.44770813 0.980896 1.1501312 1.425354 2.1072998c0.45983887 0.9571533 0.7969971 2.0300903 1.0115967 3.2188263c0.21453857 1.1887207 0.32183838 2.2770996 0.32183838 3.2651367c0 0.91082764 -0.038330078 1.6209869 -0.1149292 2.1304321c-0.076660156 0.49401855 -0.1609497 0.825943 -0.2529297 0.99575806c-0.07659912 0.16981506 -0.20690918 0.33963013 -0.3908081 0.50946045c-0.1685791 0.15437317 -0.46746826 0.36279297 -0.89660645 0.6252289l-10.255066 7.7422333l0 0c0.124816895 -0.3854828 0.19433594 -0.8589325 0.2084961 -1.4203644c0.045959473 -1.8216858 0.17626953 -3.705124 0.3908081 -5.6503143c0.21459961 -1.9451904 0.52111816 -3.8440552 0.9196167 -5.6966248c0.41381836 -1.8525543 0.9272461 -3.41951 1.5402832 -4.7008667c0.61309814 -1.2813568 1.2874756 -2.2307892 2.0231323 -2.8483124c0.75097656 -0.6329651 1.5939941 -0.9494324 2.5288696 -0.9494324zm-7.611206 21.265915c0 0 0 0 0 0l0 0l0 0zm11.74939 -34.28015c-2.8200684 0 -5.739807 0.3936615 -8.759155 1.1809998c-3.0039673 0.77189636 -5.9466553 1.9220276 -8.828064 3.4503937c-2.8660889 1.5129242 -5.6018677 3.41951 -8.207397 5.7197876c-2.6055298 2.2848206 -4.889221 4.963318 -6.851013 8.035477c-1.961792 3.056717 -3.517456 6.483963 -4.666931 10.281708c-1.1341553 3.7823029 -1.7012329 7.927414 -1.7012329 12.435318c0 6.221512 0.95788574 11.69429 2.8737183 16.41832c1.9158325 4.7240143 4.4906616 8.691589 7.7246094 11.902695c3.2338867 3.1956635 6.9276123 5.5962677 11.081116 7.201828c4.1535034 1.5901031 8.414307 2.3851776 12.782349 2.3851776c4.3068237 0 8.153809 -0.54034424 11.540955 -1.6210022c3.4025269 -1.080658 6.3758545 -2.4391937 8.920044 -4.0756226c2.5442505 -1.6364288 4.705261 -3.3731995 6.4831543 -5.210327c1.7932129 -1.8525696 3.7703857 -4.245453 5.9313965 -7.1786804l-5.5405273 -5.3724213c-2.406311 2.1304474 -4.122864 3.5893402 -5.1497803 4.3766785c-1.0115356 0.78733826 -2.0307617 1.4588928 -3.0576172 2.0146484c-1.0115967 0.5557709 -2.092102 0.9880371 -3.2415771 1.2967987c-1.1494751 0.3087616 -2.3986206 0.46313477 -3.7473755 0.46313477c-1.9311523 0 -3.7090454 -0.3087616 -5.333618 -0.92626953c-1.6246338 -0.6329651 -3.126648 -1.4897766 -4.5060425 -2.5704346c-1.3640747 -1.080658 -2.59021 -2.32341 -3.6784058 -3.7282715c-1.072815 -1.4203033 -1.9847412 -2.9177856 -2.7357788 -4.492462c-0.73565674 -1.5901184 -1.295105 -3.141632 -1.6782227 -4.6545563c-0.3831787 -1.5283661 -0.57476807 -2.3465881 -0.57476807 -2.4546509l25.817627 -15.353088c2.4216309 -1.5129242 4.3987427 -3.342331 5.9313965 -5.488205c1.5479736 -2.1613312 2.3219604 -4.6468353 2.3219604 -7.456558c0 -2.100174 -0.44024658 -4.1025085 -1.3208008 -6.007019l0 0l4.4474487 5.3123016c1.9771118 -1.5592346 3.0883179 -2.4006042 3.3335571 -2.524109c0.26055908 -0.13894653 0.5517578 -0.2084198 0.8735962 -0.2084198c0.3831787 0 0.666687 0.14666748 0.850647 0.43998718c0.18389893 0.2933197 0.2758789 0.825943 0.2758789 1.5978394l0 53.631622c0 0.72558594 0.13024902 1.6904602 0.3908081 2.8946228c0.2758789 1.2041626 0.9425659 2.3774567 2.000122 3.519867c1.072876 1.1424103 2.49823 2.076416 4.276123 2.802002c1.7778931 0.7410126 4.0768433 1.1115265 6.8969727 1.1115265c2.7894287 0 5.073059 -0.33963013 6.850952 -1.0189056c1.7778931 -0.6638336 3.1956177 -1.5437927 4.253174 -2.6398926c1.0574951 -1.1115417 1.7165527 -2.269394 1.9771118 -3.4735565c0.2758789 -1.2196045 0.41381836 -2.2385101 0.41381836 -3.056717l0 -43.72043c0.24523926 -0.21614075 0.91955566 -0.7564697 2.0230713 -1.6210022c1.1188965 -0.8799591 2.2683716 -1.6750183 3.4484863 -2.3851624c1.1801758 -0.7101593 2.3373413 -1.2813568 3.4714966 -1.713623c1.1341553 -0.44769287 2.2300415 -0.67155457 3.2875366 -0.67155457c1.164856 0 1.9924927 0.23156738 2.4829102 0.6947174c0.49047852 0.46313477 0.9655762 1.8988647 1.425415 4.307205l6.437134 0c1.2567749 -3.5507507 2.0231323 -6.136612 2.2990112 -7.757599c0.29119873 -1.6364288 0.43676758 -3.326889 0.43676758 -5.071396c0 -3.3345947 -0.9501953 -6.005371 -2.850708 -8.012314c-1.8851929 -2.0069427 -4.421753 -3.0104065 -7.60968 -3.0104065c-1.4559937 0 -2.8737183 0.2624359 -4.253113 0.78733826c-1.3793945 0.5094452 -2.666809 1.1655579 -3.8623047 1.968338c-1.1801147 0.80278015 -2.2990112 1.6827393 -3.3565063 2.6398926c-1.0575562 0.9571533 -2.0307617 1.9374695 -2.9197388 2.9409485c-0.522522 0.5770111 -0.979126 1.1835785 -1.36969 1.8196716l0 0c-0.27697754 -0.9266205 -0.6404419 -1.8650818 -1.09021 -2.8154297c-0.62841797 -1.3276672 -1.5326538 -2.5472717 -2.7128296 -3.6587982c-1.1647949 -1.1269836 -2.62854 -2.0223846 -4.3910522 -2.6862183c-1.7472534 -0.6638336 -3.7857056 -0.9957428 -6.1152954 -0.9957428c-2.1610718 0 -4.2148438 0.23156738 -6.161316 0.69470215c-1.9311523 0.46313477 -3.7319946 1.0575104 -5.402588 1.7830963c-1.6705933 0.71014404 -3.2262573 1.5360718 -4.666992 2.4777985c-1.3885498 0.902359 -3.366211 2.4200592 -5.9329224 4.5531006l0 0c-1.0269165 -1.8302917 -2.4517822 -3.425171 -4.274597 -4.784668c-1.9924316 -1.4974976 -4.406372 -2.6553497 -7.2417603 -3.4735565c-2.8354492 -0.8336487 -6.092346 -1.250473 -9.770752 -1.250473z" fill-rule="evenodd"/><path stroke="#000000" stroke-width="4.0" stroke-linejoin="round" stroke-linecap="butt" d="m274.6349 132.91278c0 0 0 0 0 0l0 0l0 0zm96.33865 -1.9554596c-1.961792 0 -3.785675 0.3164673 -5.471588 0.9494324c-1.6859131 0.6329651 -3.1879272 1.5129242 -4.506012 2.6398926c-1.3180847 1.1269836 -2.3602905 2.4777985 -3.126648 4.052475c-0.7663269 1.5592499 -1.1494751 3.2188263 -1.1494751 4.97876c0 1.8062439 0.3831482 3.4889984 1.1494751 5.048233c0.78167725 1.5592346 1.831543 2.8869019 3.1496277 3.9830017c1.3180847 1.080658 2.812439 1.9374695 4.483032 2.5704346c1.6859131 0.6329498 3.5097961 0.9494324 5.471588 0.9494324c1.9158325 0 3.7090454 -0.31648254 5.3796387 -0.9494324c1.6859131 -0.6329651 3.1802673 -1.4974823 4.483032 -2.5935974c1.3027649 -1.0960846 2.3373108 -2.4160461 3.1036377 -3.9598389c0.7663269 -1.5592346 1.1494751 -3.2419891 1.1494751 -5.048233c0 -1.7599335 -0.3831482 -3.41951 -1.1494751 -4.97876c-0.7663269 -1.5746765 -1.8008728 -2.9254913 -3.1036377 -4.052475c-1.2874451 -1.1269684 -2.774109 -2.0069275 -4.4600525 -2.6398926c-1.6859131 -0.6329651 -3.486786 -0.9494324 -5.4026184 -0.9494324zm52.090363 31.828934c0 0 0 0 0 0l0 0c0 0 0 0 0 0zm76.694275 0c0 0 0 0 0 0l0 0c0 0 0 0 0 0zm-191.30838 3.660904l0 0l0 0c0 0 0 0 0 0zm122.389404 4.7570343c1.1495056 0 2.1917114 0.31648254 3.1266174 0.9494324c0.9349365 0.6329651 1.8162231 1.8216858 2.6438599 3.5661774c0.8276367 1.729065 1.4866638 4.1991425 1.9771118 7.410248c0.50579834 3.1956635 0.758667 7.194107 0.758667 11.995331c0 3.9058075 -0.19924927 7.549179 -0.5977173 10.9300995c-0.3831787 3.3809204 -0.9885864 6.2601166 -1.8162231 8.637573c-0.8122864 2.3620148 -1.7165527 4.0833435 -2.712799 5.1640015c-0.9962158 1.080658 -2.0767517 1.6210022 -3.2415771 1.6210022c-0.95025635 0 -1.7702026 -0.23930359 -2.4599 -0.71788025c-0.68969727 -0.49401855 -1.2874451 -1.1038208 -1.7932129 -1.8293915c-0.50579834 -0.7256012 -0.8736267 -1.4048767 -1.1035156 -2.0378265c-0.21456909 -0.6329498 -0.3218689 -0.96487427 -0.3218689 -0.9957428l0 -38.69536c0 -0.52490234 0.16860962 -1.1501312 0.5057678 -1.8757172c0.35250854 -0.72558594 0.8276367 -1.4048615 1.4253845 -2.0378265c0.5977478 -0.6329498 1.2261353 -1.1346893 1.8851624 -1.5052032c0.6590576 -0.38594055 1.2337952 -0.57891846 1.7242432 -0.57891846zm76.694275 0c1.1495056 0 2.1917114 0.31648254 3.1266174 0.9494324c0.9349365 0.6329651 1.8162231 1.8216858 2.6438599 3.5661774c0.8276367 1.729065 1.4866943 4.1991425 1.9771118 7.410248c0.50579834 3.1956635 0.758667 7.194107 0.758667 11.995331c0 3.9058075 -0.19921875 7.549179 -0.5977173 10.9300995c-0.3831787 3.3809204 -0.9885864 6.2601166 -1.8162231 8.637573c-0.8123169 2.3620148 -1.7165833 4.0833435 -2.712799 5.1640015c-0.9962158 1.080658 -2.0767517 1.6210022 -3.2415771 1.6210022c-0.95025635 0 -1.7702332 -0.23930359 -2.4599304 -0.71788025c-0.68969727 -0.49401855 -1.2874146 -1.1038208 -1.7932129 -1.8293915c-0.5057678 -0.7256012 -0.8735962 -1.4048767 -1.1035156 -2.0378265c-0.21456909 -0.6329498 -0.32183838 -0.96487427 -0.32183838 -0.9957428l0 -38.69536c0 -0.52490234 0.1685791 -1.1501312 0.5057678 -1.8757172c0.35250854 -0.72558594 0.8276367 -1.4048615 1.4253845 -2.0378265c0.5977173 -0.6329498 1.2261047 -1.1346893 1.8851624 -1.5052032c0.6590576 -0.38594055 1.2337952 -0.57891846 1.7242432 -0.57891846zm-136.83582 -14.751007c-2.1610413 0 -4.214813 0.23156738 -6.1612854 0.69470215c-1.9311523 0.46313477 -3.7320251 1.0575104 -5.4026184 1.7830963c-1.6706238 0.71014404 -3.2262573 1.5360718 -4.6669617 2.4777985c-1.425354 0.92626953 -3.471466 2.500946 -6.1383057 4.7240295l5.1957397 6.20607c1.9771118 -1.5592346 3.0882874 -2.4006042 3.3335266 -2.524109c0.26052856 -0.13894653 0.5517578 -0.2084198 0.8735962 -0.2084198c0.3831787 0 0.6667175 0.14666748 0.850647 0.43998718c0.18389893 0.2933197 0.2758789 0.825943 0.2758789 1.5978394l0 53.631622c0 0.69470215 0.1149292 1.6441498 0.34484863 2.8483124c0.22988892 1.1887207 0.85061646 2.3620148 1.8621826 3.519867c1.026886 1.1578522 2.4216003 2.1072845 4.184143 2.8483124c1.7625732 0.7410126 4.061554 1.1115265 6.8969727 1.1115265c2.7894287 0 5.0807495 -0.33963013 6.8739624 -1.0189056c1.7932129 -0.6638336 3.2415771 -1.5515137 4.345093 -2.6630554c1.1035156 -1.1115417 1.8008728 -2.2848206 2.092102 -3.519867c0.30651855 -1.250473 0.45977783 -2.2925415 0.45977783 -3.1261902l0 -54.32634c0 -1.1424103 -0.099609375 -2.5318298 -0.29885864 -4.1682587c-0.19924927 -1.6364288 -0.8276367 -3.24971 -1.8851624 -4.839813c-1.0575562 -1.605545 -2.6362 -2.9177856 -4.7359314 -3.9366913c-2.0997314 -1.0343475 -4.8661804 -1.5515137 -8.299347 -1.5515137zm-76.00458 -35.985992c-2.1610413 0 -4.214813 0.23156738 -6.1612854 0.6947098c-1.9311523 0.46313477 -3.747345 1.0575027 -5.4486084 1.7830887c-1.6859131 0.71014404 -3.2339172 1.5360794 -4.6439514 2.4777985c-1.4100342 0.92627716 -3.4484863 2.4932404 -6.1152954 4.7008667l2.3109436 2.7891235c-1.1655579 -1.220993 -2.5106506 -2.2973633 -4.035187 -3.2290955c-2.7281494 -1.6673126 -5.8700867 -2.9100647 -9.425873 -3.7282867c-3.5404358 -0.8336487 -7.42572 -1.250473 -11.655869 -1.250473c-6.467819 0 -12.57547 1.3816986 -18.322937 4.145096c-5.732132 2.7634125 -10.705612 6.846756 -14.920441 12.250061c-4.1994934 5.403305 -7.5023804 12.041641 -9.908646 19.915024c-2.3909454 7.8579407 -3.5864105 16.935486 -3.5864105 27.232635c0 10.930115 1.1341553 20.378174 3.4024963 28.344177c2.283661 7.9660187 5.479248 14.558044 9.586777 19.776093c4.107544 5.2334747 8.95076 9.100693 14.529617 11.601654c5.5941925 2.5009613 11.609894 3.7514343 18.047058 3.7514343c4.1381836 0 7.9161835 -0.50172424 11.33403 -1.5052032c3.4178162 -0.98802185 6.498474 -2.269394 9.241913 -3.8440704c2.758789 -1.5746765 5.1650696 -3.319168 7.2188416 -5.2334747c2.0690918 -1.89888 4.3987427 -4.4538727 6.988922 -7.664978l-7.2188416 -7.271286c-2.620819 3.0721588 -4.674591 5.1794434 -6.1612854 6.3218536c-1.471344 1.1269684 -3.0039978 2.084137 -4.5979614 2.8714752c-1.5786438 0.78733826 -3.1802673 1.3816986 -4.804901 1.783081c-1.6246033 0.41682434 -3.210907 0.62524414 -4.758896 0.62524414c-1.4560394 0 -3.0040283 -0.21614075 -4.6439667 -0.6483917c-1.6246033 -0.43226624 -3.264557 -1.2350311 -4.9198303 -2.4083405c-1.6552734 -1.1578369 -3.264557 -2.8405762 -4.827881 -5.048218c-1.5633087 -2.2076416 -2.988678 -5.133148 -4.276108 -8.7765045c-1.27211 -3.6433716 -2.298996 -8.135834 -3.080658 -13.477386c-0.7816467 -5.3415375 -1.1724701 -11.69429 -1.1724701 -19.058212c0 -7.734436 0.39082336 -14.419098 1.1724701 -20.05397c0.781662 -5.634857 1.7932129 -10.374329 3.034668 -14.218399c1.2414551 -3.8440552 2.6131897 -6.9162292 4.1151886 -9.216492c1.5020142 -2.315689 2.9810333 -4.0679016 4.4370575 -5.2566376c1.4560242 -1.2041626 2.8507385 -2.0069427 4.1841583 -2.4083252c1.3334045 -0.41682434 2.475235 -0.62524414 3.4254913 -0.62524414c1.0422058 0 1.785553 0.16210938 2.2300262 0.4862976c0.44447327 0.3087616 0.8199768 0.80278015 1.1264954 1.4820557c0.30654907 0.6792755 0.5287781 1.605545 0.6667175 2.778839c0.13793945 1.1732788 0.22988892 2.4700775 0.2758789 3.8903809c0.045959473 1.4048615 0.13024902 2.87146 0.25286865 4.399826c0.13793945 1.5283661 0.46746826 3.0181274 0.9885864 4.4692993c0.536438 1.4511719 1.4483643 2.6939392 2.7357788 3.7282867c1.2874451 1.0343475 3.0116882 1.5515137 5.1727295 1.5515137c2.176361 0 4.0845337 -0.4708557 5.7244873 -1.4125824c1.6399536 -0.9571533 2.996338 -2.153595 4.069214 -3.589325c1.0881958 -1.4357452 1.8851624 -2.987259 2.3909302 -4.6545715c0.50579834 -1.6827393 0.758667 -3.2960052 0.758667 -4.839813c0 -3.2882843 -0.78930664 -6.229233 -2.3679504 -8.822815c-0.24285889 -0.39898682 -0.4992981 -0.7870178 -0.76934814 -1.164093l0 0l1.1371765 1.3725128c1.9464722 -1.5283661 3.0576782 -2.3542938 3.3335571 -2.4777985c0.2758789 -0.12350464 0.5977173 -0.18525696 0.9655762 -0.18525696c0.3831482 0 0.666687 0.14665222 0.85061646 0.43997192c0.18392944 0.2933197 0.2758789 0.825943 0.2758789 1.5978394l0 89.617615c0 0.72558594 0.13027954 1.6904602 0.39083862 2.8946228c0.26052856 1.188736 0.91192627 2.3620148 1.9541321 3.519867c1.0422058 1.1424103 2.4675903 2.076416 4.276123 2.802002c1.8085327 0.7410126 4.1228333 1.1115265 6.942932 1.1115265c2.7894592 0 5.07312 -0.33963013 6.8509827 -1.0189056c1.7932129 -0.6792755 3.2185974 -1.5823975 4.276123 -2.7093658c1.0575562 -1.1269684 1.7165833 -2.3002625 1.9771423 -3.519867c0.26055908 -1.2350464 0.3908081 -2.261673 0.3908081 -3.0798798l-0.45977783 -45.526672l0 0c0.021392822 0.003921509 0.043182373 0.005874634 0.065338135 0.005874634c0.3267212 0 0.7340698 -0.4264984 1.2220764 -1.2795105c0.536438 -0.9262848 1.111206 -1.7676544 1.7242432 -2.5241241c0.62841797 -0.75645447 1.2644653 -1.3662567 1.9081726 -1.8293915c0.6590271 -0.46315002 1.3410645 -0.6947174 2.046112 -0.6947174c0.6130371 0 1.203125 0.15438843 1.7702026 0.46315002c0.582428 0.30874634 1.1954956 1.1655579 1.8392029 2.5704193c0.6590271 1.4048615 1.2337952 3.7514343 1.7242432 7.039734c0.5057678 3.2728577 0.758667 7.749878 0.758667 13.431061c0 8.367401 -0.28353882 15.160126 -0.850647 20.378159c-0.5517578 5.202606 -1.3180847 9.208771 -2.2989807 12.018494c-0.9655762 2.809723 -2.0690918 4.7471924 -3.3105469 5.8124084c-1.2261353 1.0652161 -3.6017456 2.0300903 -7.1268616 2.8946228l1.9541321 8.05864c3.4178467 -0.09262085 6.3758545 -0.4091034 8.874115 -0.9494324c2.5135498 -0.5248871 5.1267395 -1.4743347 7.8395386 -2.8483124c2.7281494 -1.358551 5.4179688 -3.2419891 8.069458 -5.6503143c2.6514893 -2.3928986 5.0118103 -5.4573364 7.080902 -9.193329c2.0844116 -3.7360077 3.755005 -8.205307 5.01178 -13.407913c1.2567749 -5.202591 1.8851624 -11.277451 1.8851624 -18.224564c0 -7.0860443 -0.45977783 -13.08371 -1.3793945 -17.992981c-0.9195862 -4.9247284 -2.3296204 -9.000366 -4.230133 -12.226913c-1.8851624 -3.226532 -4.283783 -5.557678 -7.1958313 -6.993408c-2.8967285 -1.43573 -6.1152954 -2.153595 -9.655762 -2.153595c-1.6859131 0 -3.3182068 0.21612549 -4.8968506 0.6483917c-1.5786133 0.43226624 -3.0576477 1.0034637 -4.437042 1.713623c-1.3793945 0.69470215 -2.666809 1.4820404 -3.8623047 2.3620148c-1.1954651 0.8645172 -2.2683105 1.7521973 -3.218567 2.6630554c-1.1411133 1.0267944 -1.9122009 1.8957672 -2.3132324 2.6068878l0 0l1.4625854 -31.553146c0 -1.1424255 -0.099609375 -2.5164032 -0.29885864 -4.1219482c-0.19924927 -1.6210022 -0.8276367 -3.2265472 -1.8851624 -4.8166656c-1.0575256 -1.6055527 -2.6361694 -2.917778 -4.7359314 -3.9366913c-2.0997314 -1.0343399 -4.8661804 -1.5515137 -8.299347 -1.5515137zm115.38626 35.985992c-2.1610413 0 -4.214813 0.23156738 -6.1612854 0.69470215c-1.9311523 0.46313477 -3.7320251 1.0575104 -5.4026184 1.7830963c-1.6706238 0.71014404 -3.2262573 1.5360718 -4.6669617 2.4777985c-1.4253845 0.92626953 -3.471466 2.500946 -6.1383057 4.7240295l5.195709 6.20607c1.9771423 -1.5592346 3.0883179 -2.4006042 3.3335571 -2.524109c0.26052856 -0.13894653 0.5517578 -0.2084198 0.8735962 -0.2084198c0.3831787 0 0.6667175 0.14666748 0.850647 0.43998718c0.18389893 0.2933197 0.2758789 0.825943 0.2758789 1.5978394l0 88.08925c0 0.72558594 0.13024902 1.6750183 0.3908081 2.848297c0.2758789 1.1733093 0.94259644 2.3465881 2.000122 3.519867c1.0575256 1.1732788 2.4752502 2.1227417 4.2531433 2.8483276c1.7932129 0.74102783 4.0998535 1.1115417 6.9199524 1.1115417c2.8047485 0 5.0961 -0.35510254 6.8739624 -1.0652466c1.7932129 -0.69470215 3.2109375 -1.6055298 4.2531433 -2.7325134c1.0422058 -1.1269836 1.693573 -2.2925415 1.9541321 -3.496704c0.2758789 -1.2041626 0.41381836 -2.2153625 0.41381836 -3.0335693l-2.1820374 -29.340088l0 0c0.95373535 0.74269104 2.1255798 1.4914856 3.515442 2.2463837c1.5786438 0.8336487 3.4331665 1.536087 5.563568 2.1072845c2.1457214 0.57121277 4.613312 0.8568115 7.4027405 0.8568115c3.4638062 0 6.8663025 -0.7796173 10.20752 -2.338852c3.3411865 -1.5592499 6.276245 -4.0138855 8.805115 -7.363922c2.5289001 -3.3500519 4.536682 -7.5491943 6.023346 -12.597412c1.5020142 -5.063675 2.2530212 -11.123077 2.2530212 -18.178253c0 -6.0825806 -0.6130676 -11.493607 -1.8392029 -16.233063c-1.2261353 -4.754898 -3.034668 -8.807373 -5.425598 -12.157425c-2.3756409 -3.3654938 -5.2723694 -5.920471 -8.690186 -7.664978c-3.4024963 -1.7444916 -7.1805115 -2.6167297 -11.334015 -2.6167297c-2.0384216 0 -4.007904 0.23927307 -5.9084167 0.717865c-1.9004822 0.46313477 -3.701355 1.1269684 -5.4026184 1.9915009c-1.6859131 0.8645172 -3.256897 1.9065857 -4.712921 3.1261902c-0.18869019 0.15974426 -0.3588562 0.32557678 -0.51049805 0.49751282l0 0c-0.5501404 -0.78134155 -1.215271 -1.5261078 -1.9953918 -2.2342834c-1.2414551 -1.1424103 -2.766449 -2.1072845 -4.5749817 -2.8946228c-1.7932129 -0.80278015 -3.9312744 -1.2041626 -6.4141846 -1.2041626zm76.694275 0c-2.1610718 0 -4.214813 0.23156738 -6.161316 0.69470215c-1.9311218 0.46313477 -3.7320251 1.0575104 -5.4026184 1.7830963c-1.6705933 0.71014404 -3.2262268 1.5360718 -4.666931 2.4777985c-1.4253845 0.92626953 -3.471466 2.500946 -6.1383057 4.7240295l5.195709 6.20607c1.9771423 -1.5592346 3.0883179 -2.4006042 3.3335266 -2.524109c0.26055908 -0.13894653 0.5517578 -0.2084198 0.8736267 -0.2084198c0.3831482 0 0.6667175 0.14666748 0.85061646 0.43998718c0.18392944 0.2933197 0.2758789 0.825943 0.2758789 1.5978394l0 88.08925c0 0.72558594 0.13027954 1.6750183 0.39083862 2.848297c0.2758789 1.1733093 0.94259644 2.3465881 2.000122 3.519867c1.0575256 1.1732788 2.4752502 2.1227417 4.253113 2.8483276c1.7932129 0.74102783 4.099884 1.1115417 6.919983 1.1115417c2.8047485 0 5.0960693 -0.35510254 6.8739624 -1.0652466c1.7932129 -0.69470215 3.2109375 -1.6055298 4.2531433 -2.7325134c1.0422058 -1.1269836 1.693573 -2.2925415 1.9541321 -3.496704c0.2758789 -1.2041626 0.41381836 -2.2153625 0.41381836 -3.0335693l-2.1820679 -29.340088l0 0c0.95376587 0.74269104 2.1255798 1.4914856 3.5154724 2.2463837c1.5786438 0.8336487 3.4331665 1.536087 5.563568 2.1072845c2.1457214 0.57121277 4.6132812 0.8568115 7.40271 0.8568115c3.4638062 0 6.866333 -0.7796173 10.20752 -2.338852c3.3411865 -1.5592499 6.276245 -4.0138855 8.805115 -7.363922c2.5289307 -3.3500519 4.536682 -7.5491943 6.0233765 -12.597412c1.5020142 -5.063675 2.2529907 -11.123077 2.2529907 -18.178253c0 -6.0825806 -0.6130371 -11.493607 -1.8391724 -16.233063c-1.2261353 -4.754898 -3.034668 -8.807373 -5.425598 -12.157425c-2.3756714 -3.3654938 -5.272339 -5.920471 -8.690186 -7.664978c-3.4025269 -1.7444916 -7.180542 -2.6167297 -11.334045 -2.6167297c-2.038391 0 -4.0078735 0.23927307 -5.908386 0.717865c-1.9004822 0.46313477 -3.701355 1.1269684 -5.4026184 1.9915009c-1.6859131 0.8645172 -3.256897 1.9065857 -4.712921 3.1261902c-0.1887207 0.15974426 -0.35888672 0.32557678 -0.51049805 0.49751282c-0.5501404 -0.78134155 -1.215271 -1.5261078 -1.9953918 -2.2342834c-1.2414551 -1.1424103 -2.766449 -2.1072845 -4.575012 -2.8946228c-1.7932129 -0.80278015 -3.931244 -1.2041626 -6.414154 -1.2041626z" fill-rule="evenodd"/><path stroke="#000000" stroke-width="4.0" stroke-linejoin="round" stroke-linecap="butt" d="m643.1605 166.60938c0 0 0 0 0 0l0 0c0 0 0 0 0 0zm-61.8985 2.8580475c0.536438 0 1.0499268 0.22384644 1.5403442 0.6715393c0.50579834 0.44770813 0.980896 1.1501312 1.425354 2.1072998c0.45983887 0.9571533 0.7969971 2.0300903 1.0115967 3.2188263c0.21453857 1.1887207 0.32183838 2.2770996 0.32183838 3.2651367c0 0.91082764 -0.038330078 1.6209869 -0.1149292 2.1304321c-0.076660156 0.49401855 -0.1609497 0.825943 -0.2529297 0.99575806c-0.07659912 0.16981506 -0.20690918 0.33963013 -0.3908081 0.50946045c-0.1685791 0.15437317 -0.46746826 0.36279297 -0.89660645 0.6252289l-10.255066 7.7422333l0 0c0.124816895 -0.3854828 0.19433594 -0.8589325 0.2084961 -1.4203644c0.045959473 -1.8216858 0.17626953 -3.705124 0.3908081 -5.6503143c0.21459961 -1.9451904 0.52111816 -3.8440552 0.9196167 -5.6966248c0.41381836 -1.8525543 0.9272461 -3.41951 1.5402832 -4.7008667c0.61309814 -1.2813568 1.2874756 -2.2307892 2.0231323 -2.8483124c0.75097656 -0.6329651 1.5939941 -0.9494324 2.5288696 -0.9494324zm-7.611206 21.265915c0 0 0 0 0 0l0 0l0 0zm11.74939 -34.28015c-2.8200684 0 -5.739807 0.3936615 -8.759155 1.1809998c-3.0039673 0.77189636 -5.9466553 1.9220276 -8.828064 3.4503937c-2.8660889 1.5129242 -5.6018677 3.41951 -8.207397 5.7197876c-2.6055298 2.2848206 -4.889221 4.963318 -6.851013 8.035477c-1.961792 3.056717 -3.517456 6.483963 -4.666931 10.281708c-1.1341553 3.7823029 -1.7012329 7.927414 -1.7012329 12.435318c0 6.221512 0.95788574 11.69429 2.8737183 16.41832c1.9158325 4.7240143 4.4906616 8.691589 7.7246094 11.902695c3.2338867 3.1956635 6.9276123 5.5962677 11.081116 7.201828c4.1535034 1.5901031 8.414307 2.3851776 12.782349 2.3851776c4.3068237 0 8.153809 -0.54034424 11.540955 -1.6210022c3.4025269 -1.080658 6.3758545 -2.4391937 8.920044 -4.0756226c2.5442505 -1.6364288 4.705261 -3.3731995 6.4831543 -5.210327c1.7932129 -1.8525696 3.7703857 -4.245453 5.9313965 -7.1786804l-5.5405273 -5.3724213c-2.406311 2.1304474 -4.122864 3.5893402 -5.1497803 4.3766785c-1.0115356 0.78733826 -2.0307617 1.4588928 -3.0576172 2.0146484c-1.0115967 0.5557709 -2.092102 0.9880371 -3.2415771 1.2967987c-1.1494751 0.3087616 -2.3986206 0.46313477 -3.7473755 0.46313477c-1.9311523 0 -3.7090454 -0.3087616 -5.333618 -0.92626953c-1.6246338 -0.6329651 -3.126648 -1.4897766 -4.5060425 -2.5704346c-1.3640747 -1.080658 -2.59021 -2.32341 -3.6784058 -3.7282715c-1.072815 -1.4203033 -1.9847412 -2.9177856 -2.7357788 -4.492462c-0.73565674 -1.5901184 -1.295105 -3.141632 -1.6782227 -4.6545563c-0.3831787 -1.5283661 -0.57476807 -2.3465881 -0.57476807 -2.4546509l25.817627 -15.353088c2.4216309 -1.5129242 4.3987427 -3.342331 5.9313965 -5.488205c1.5479736 -2.1613312 2.3219604 -4.6468353 2.3219604 -7.456558c0 -2.100174 -0.44024658 -4.1025085 -1.3208008 -6.007019l0 0l4.4474487 5.3123016c1.9771118 -1.5592346 3.0883179 -2.4006042 3.3335571 -2.524109c0.26055908 -0.13894653 0.5517578 -0.2084198 0.8735962 -0.2084198c0.3831787 0 0.666687 0.14666748 0.850647 0.43998718c0.18389893 0.2933197 0.2758789 0.825943 0.2758789 1.5978394l0 53.631622c0 0.72558594 0.13024902 1.6904602 0.3908081 2.8946228c0.2758789 1.2041626 0.9425659 2.3774567 2.000122 3.519867c1.072876 1.1424103 2.49823 2.076416 4.276123 2.802002c1.7778931 0.7410126 4.0768433 1.1115265 6.8969727 1.1115265c2.7894287 0 5.073059 -0.33963013 6.850952 -1.0189056c1.7778931 -0.6638336 3.1956177 -1.5437927 4.253174 -2.6398926c1.0574951 -1.1115417 1.7165527 -2.269394 1.9771118 -3.4735565c0.2758789 -1.2196045 0.41381836 -2.2385101 0.41381836 -3.056717l0 -43.72043c0.24523926 -0.21614075 0.91955566 -0.7564697 2.0230713 -1.6210022c1.1188965 -0.8799591 2.2683716 -1.6750183 3.4484863 -2.3851624c1.1801758 -0.7101593 2.3373413 -1.2813568 3.4714966 -1.713623c1.1341553 -0.44769287 2.2300415 -0.67155457 3.2875366 -0.67155457c1.164856 0 1.9924927 0.23156738 2.4829102 0.6947174c0.49047852 0.46313477 0.9655762 1.8988647 1.425415 4.307205l6.437134 0c1.2567749 -3.5507507 2.0231323 -6.136612 2.2990112 -7.757599c0.29119873 -1.6364288 0.43676758 -3.326889 0.43676758 -5.071396c0 -3.3345947 -0.9501953 -6.005371 -2.850708 -8.012314c-1.8851929 -2.0069427 -4.421753 -3.0104065 -7.60968 -3.0104065c-1.4559937 0 -2.8737183 0.2624359 -4.253113 0.78733826c-1.3793945 0.5094452 -2.666809 1.1655579 -3.8623047 1.968338c-1.1801147 0.80278015 -2.2990112 1.6827393 -3.3565063 2.6398926c-1.0575562 0.9571533 -2.0307617 1.9374695 -2.9197388 2.9409485c-0.522522 0.5770111 -0.979126 1.1835785 -1.36969 1.8196716l0 0c-0.27697754 -0.9266205 -0.6404419 -1.8650818 -1.09021 -2.8154297c-0.62841797 -1.3276672 -1.5326538 -2.5472717 -2.7128296 -3.6587982c-1.1647949 -1.1269836 -2.62854 -2.0223846 -4.3910522 -2.6862183c-1.7472534 -0.6638336 -3.7857056 -0.9957428 -6.1152954 -0.9957428c-2.1610718 0 -4.2148438 0.23156738 -6.161316 0.69470215c-1.9311523 0.46313477 -3.7319946 1.0575104 -5.402588 1.7830963c-1.6705933 0.71014404 -3.2262573 1.5360718 -4.666992 2.4777985c-1.3885498 0.902359 -3.366211 2.4200592 -5.9329224 4.5531006l0 0c-1.0269165 -1.8302917 -2.4517822 -3.425171 -4.274597 -4.784668c-1.9924316 -1.4974976 -4.406372 -2.6553497 -7.2417603 -3.4735565c-2.8354492 -0.8336487 -6.092346 -1.250473 -9.770752 -1.250473z" fill-rule="evenodd"/></g></svg>